<svg width="809" height="746" viewBox="0 0 809 746" fill="none" xmlns="http://www.w3.org/2000/svg">
<path d="M381.873 0.327877C386.748 -0.0245177 391.652 -0.0931701 396.539 0.123454C417.966 0.949522 440.914 8.93103 455.576 23.7675C474.728 43.137 476.572 68.0647 475.398 92.8979C486.67 91.367 498.073 90.8857 509.444 91.4624C532.219 92.769 555.365 100.844 570.3 117.151C592.967 141.894 594.009 169.814 591.876 200.072C629.593 197.559 668.427 200.824 693.104 231.224C710.685 252.89 712.19 281.57 707.973 307.463C719.6 307.009 728.597 307.106 740.067 308.275C792.339 313.607 815.353 359.339 807.497 403.64C806.497 409.277 804.479 418.003 798.674 421.145C782.068 430.153 764.47 437.987 747.311 446.141L649.374 492.692L324.872 646.884L318.567 650.141C302.081 686.273 274.837 714.464 236.094 731.344C196.015 748.766 150.065 750.734 108.407 736.829C67.2071 723.023 33.6862 694.617 15.2863 657.921C-3.2169 620.897 -4.99404 578.602 10.3461 540.365C27.8396 496.88 59.4692 470.877 104.051 452.121C110.05 443.426 120.093 424.044 125.504 414.349L167.638 338.824L301.882 98.3714L335.433 38.1005C340.413 29.1396 346.986 16.1826 353.136 8.19421C357.865 2.0517 373.952 1.12649 381.873 0.327877Z" fill="#232222"/>
<path d="M111.709 479C116.176 480.615 271.79 625.643 290 642.505C287.308 648.098 284.376 653.591 281.211 658.963C263.86 688.168 235.537 706.241 201.334 715.537C174.317 722.326 145.693 721.351 119.295 712.741C84.7131 701.388 56.4909 677.775 40.9077 647.153C25.3882 616.568 23.7983 581.527 36.4912 549.853C51.0585 513.691 74.789 494.422 111.709 479Z" fill="#FEFEFD"/>
<path d="M599.91 222.711C634.751 218.291 672.264 234.635 682.129 267.341C686.325 281.249 685.373 292.772 682.766 306.815C675.285 312.552 659.073 322.308 650.665 327.683L589.102 367.035L393.1 492.487L367.187 509C352.047 495.125 336.985 481.18 322 467.167L510.259 293.342L558.788 248.393C566.559 241.193 575.24 232.695 583.698 226.225C587.016 223.688 595.391 223.203 599.91 222.711Z" fill="#FEFEFD"/>
<path d="M487.832 115.538C495.978 114.584 505.96 114.906 513.99 116.445C531.274 119.659 546.391 129.199 555.868 142.876C569.48 162.343 570.241 185.683 564.973 207.685C557.439 215.439 545.547 225.766 537.269 233.383L484.227 282.203L322.365 431.157L303.02 449L258 407.438C264.038 398.204 275.362 384.129 282.249 374.987L329.415 312.362L476.503 117.079L487.832 115.538Z" fill="#FEFEFD"/>
<path d="M721.447 330C725.309 330.035 729.172 330.27 733.001 330.704C746.809 332.337 759.329 339.017 767.739 349.246C780.375 364.683 781.53 382.93 778.765 401.336C773.096 405.028 751.654 414.703 744.638 418.03L676.376 450.45L441.77 561.9L431.305 567C417.167 553.618 402.344 540.251 388 527.021C409.838 512.459 433.805 497.699 456.048 483.487L594.19 395.262L656.7 355.176C685.116 336.964 685.422 332.194 721.447 330Z" fill="#FEFEFD"/>
<path d="M384.598 27.3072C414.773 24.5445 445.006 40.5713 450.069 69.0543C452.077 80.3482 450.916 100.413 445.813 110.844C442.199 118.239 432.347 130.01 427.013 137.087L391.717 184.034L249.606 373.744C245.78 378.707 242.016 383.953 238.292 389L195 348.922L373.399 28.7385C376.957 28.0061 380.947 27.6947 384.598 27.3072Z" fill="#FEFEFD"/>
<path d="M179.925 374C184.567 375.897 215.665 405.615 221 410.664C202.594 434.288 184.422 458.064 166.485 481.99L162.127 488C151.931 478.497 141.553 469.154 131 459.984C134.909 451.857 141.834 440.729 146.515 432.467L179.925 374Z" fill="#E15DFF"/>
<path d="M363.863 542C370.91 547.065 396.948 572.385 405 579.649C395.536 585.018 382.857 590.681 372.874 595.459L318.624 621.548L309.746 626C301.056 618.689 287.799 605.132 279 596.912L363.863 542Z" fill="#E15DFF"/>
<path d="M241.56 430C247.946 434.307 274.701 460.634 283 467.847C261.779 486.398 239.43 507.939 218.657 527.198L211.667 534C202.205 525.097 192.648 516.279 183 507.551C194.71 491.625 206.542 475.783 218.498 460.018C226.08 449.913 233.284 439.641 241.56 430Z" fill="#E15DFF"/>
<path d="M302.624 486C305.97 487.239 339.565 519.229 344 523.858C320.085 540.248 292.86 556.996 268.293 572.8L260.324 578C251.011 569.128 241.334 560.743 232 551.742C237.036 546.132 246.589 538.066 252.407 532.517C268.868 516.811 286.119 501.675 302.624 486Z" fill="#E15DFF"/>
</svg>
